<?xml version="1.0" encoding="iso-8859-1"?>
<!-- Uploaded to: SVG Repo, www.svgrepo.com, Generator: SVG Repo Mixer Tools -->
<svg fill="#000000" height="800px" width="800px" version="1.1" id="Layer_1" xmlns="http://www.w3.org/2000/svg" xmlns:xlink="http://www.w3.org/1999/xlink" 
	 viewBox="0 0 512 512" xml:space="preserve">
<g>
	<g>
		<path d="M468.302,213.801v0.001c-5.543-28.117-16.394-54.336-32.334-78.123l30.915-30.916l-59.646-59.646l-30.916,30.915
			c-23.787-15.94-50.006-26.792-78.123-32.334V0h-84.396v43.698c-28.117,5.543-54.336,16.394-78.123,32.334l-30.916-30.915
			l-59.646,59.646l30.915,30.916c-15.94,23.787-26.792,50.006-32.334,78.123H0v84.396h43.698
			c5.542,28.113,16.391,54.327,32.327,78.113l-30.911,30.795l59.644,59.785l30.923-30.921c23.788,15.94,50.006,26.791,78.123,32.334
			V512h84.396v-43.698c28.117-5.543,54.336-16.394,78.123-32.334l30.923,30.921l59.644-59.785l-30.911-30.795
			c15.936-23.785,26.785-50,32.327-78.113H512v-84.396H468.302z M495.121,281.319H454.08l-1.159,7.076
			c-5.009,30.583-16.704,58.841-34.761,83.987l-4.188,5.833l29.037,28.927l-35.779,35.864l-29.025-29.025l-5.822,4.18
			c-25.148,18.057-53.404,29.752-83.987,34.761l-7.076,1.159v41.04h-50.637V454.08l-7.076-1.159
			c-30.583-5.009-58.841-16.704-83.987-34.761l-5.822-4.18l-29.025,29.025l-35.779-35.864l29.037-28.927l-4.188-5.833
			c-18.057-25.148-29.752-53.404-34.761-83.987l-1.159-7.075H16.879v-50.637H57.92l1.159-7.076
			c5.009-30.583,16.704-58.841,34.761-83.987l4.18-5.822l-29.033-29.033l35.776-35.776l29.033,29.032l5.822-4.18
			c25.148-18.057,53.404-29.752,83.987-34.761l7.076-1.159v-41.04h50.637V57.92l7.076,1.159
			c30.583,5.009,58.841,16.704,83.987,34.761l5.822,4.18l29.033-29.032l35.776,35.775l-29.032,29.033l4.18,5.822
			c18.057,25.148,29.752,53.404,34.761,83.987l1.159,7.076h41.04V281.319z"/>
	</g>
</g>
<g>
	<g>
		<path d="M256,101.275c-85.316,0-154.725,69.409-154.725,154.725S170.684,410.725,256,410.725S410.725,341.316,410.725,256
			S341.316,101.275,256,101.275z M264.441,118.421c69.299,4.206,124.932,59.84,129.14,129.14h-67.774
			c-3.852-32.043-29.322-57.514-61.366-61.366V118.421z M247.56,118.419v67.774c-32.043,3.852-57.514,29.322-61.366,61.366h-67.774
			C122.627,178.26,178.26,122.627,247.56,118.419z M247.559,393.579c-69.299-4.206-124.932-59.84-129.14-129.14h67.774
			c3.852,32.043,29.322,57.514,61.366,61.366V393.579z M202.549,256c0-29.472,23.979-53.451,53.451-53.451
			c29.472,0,53.451,23.979,53.451,53.451c0,29.472-23.978,53.451-53.451,53.451C226.528,309.451,202.549,285.472,202.549,256z
			 M264.44,393.581v-67.774c32.043-3.852,57.514-29.322,61.366-61.366h67.774C389.373,333.74,333.74,389.373,264.44,393.581z"/>
	</g>
</g>
<g>
	<g>
		<path d="M280.269,143.218l-3.537,16.504c37.792,8.097,67.444,37.747,75.543,75.537l16.504-3.538
			C359.29,187.444,324.547,152.704,280.269,143.218z"/>
	</g>
</g>
<g>
	<g>
		<path d="M231.73,143.218c-44.278,9.486-79.021,44.227-88.511,88.504l16.505,3.538c8.099-37.79,37.751-67.441,75.542-75.537
			L231.73,143.218z"/>
	</g>
</g>
<g>
	<g>
		<path d="M159.725,276.74l-16.504,3.538c9.489,44.278,44.232,79.018,88.511,88.504l3.537-16.504
			C197.476,344.18,167.823,314.53,159.725,276.74z"/>
	</g>
</g>
<g>
	<g>
		<path d="M352.275,276.74c-8.099,37.79-37.751,67.441-75.542,75.537l3.537,16.504c44.278-9.486,79.021-44.227,88.511-88.504
			L352.275,276.74z"/>
	</g>
</g>
<g>
	<g>
		<path d="M256,219.429c-20.165,0-36.571,16.406-36.571,36.571s16.406,36.571,36.571,36.571s36.571-16.407,36.571-36.571
			S276.165,219.429,256,219.429z M256,275.692c-10.858,0-19.692-8.835-19.692-19.692s8.835-19.692,19.692-19.692
			s19.692,8.835,19.692,19.692S266.858,275.692,256,275.692z"/>
	</g>
</g>
</svg>